<svg xmlns="http://www.w3.org/2000/svg" viewBox="0 0 600 600">
<circle cx="300" cy="300" r="300" fill="#7D0337"/>
<g transform="translate(87.38,383.74) scale(0.26250,-0.26250)">
<path fill="#F7ECE7" d="M122 0 10 650H186L220 366Q225 315 231.0 264.0Q237 213 242 162H246Q255 213 264.0 264.5Q273 316 282 366L346 650H490L550 366Q559 317 568.0 265.5Q577 214 586 162H590Q595 214 601.0 265.5Q607 317 612 366L650 650H814L704 0H486L436 258Q429 296 423.0 335.0Q417 374 412 410H408Q403 374 397.5 335.0Q392 296 384 258L336 0Z M1114 -12Q1041 -12 982.5 19.0Q924 50 890.0 108.5Q856 167 856 250Q856 331 890.5 389.5Q925 448 980.0 480.0Q1035 512 1096 512Q1170 512 1218.5 479.5Q1267 447 1290.5 392.0Q1314 337 1314 270Q1314 248 1311.5 227.5Q1309 207 1307 198H992L990 310H1168Q1168 339 1153.5 360.5Q1139 382 1100 382Q1079 382 1058.5 370.5Q1038 359 1025.0 330.0Q1012 301 1014 250Q1016 195 1035.0 166.5Q1054 138 1081.5 128.0Q1109 118 1138 118Q1164 118 1189.5 125.5Q1215 133 1242 148L1296 46Q1256 18 1206.0 3.0Q1156 -12 1114 -12Z M1510 -12Q1467 -12 1438.5 18.5Q1410 49 1410 92Q1410 136 1438.5 166.0Q1467 196 1510 196Q1554 196 1582.0 166.0Q1610 136 1610 92Q1610 49 1582.0 18.5Q1554 -12 1510 -12Z"/>
</g>
</svg>
